<mxfile host="app.diagrams.net" modified="2023-11-04T08:53:04.321Z" agent="Mozilla/5.0 (Windows NT 10.0; Win64; x64; rv:109.0) Gecko/20100101 Firefox/119.0" etag="NmEK7fE7owIQpKMb5eAt" version="22.0.8" type="github">
  <diagram id="C5RBs43oDa-KdzZeNtuy" name="Page-1">
    <mxGraphModel dx="1956" dy="1107" grid="1" gridSize="10" guides="1" tooltips="1" connect="1" arrows="1" fold="1" page="1" pageScale="1" pageWidth="827" pageHeight="1169" math="0" shadow="0">
      <root>
        <mxCell id="WIyWlLk6GJQsqaUBKTNV-0" />
        <mxCell id="WIyWlLk6GJQsqaUBKTNV-1" parent="WIyWlLk6GJQsqaUBKTNV-0" />
        <mxCell id="7JB2jiOyO1GIOqcpzcJS-27" value="" style="endArrow=block;endSize=10;endFill=0;shadow=0;strokeWidth=1;rounded=0;edgeStyle=elbowEdgeStyle;elbow=vertical;entryX=0.5;entryY=1;entryDx=0;entryDy=0;exitX=0.5;exitY=0;exitDx=0;exitDy=0;" parent="WIyWlLk6GJQsqaUBKTNV-1" source="7JB2jiOyO1GIOqcpzcJS-31" target="7JB2jiOyO1GIOqcpzcJS-28" edge="1">
          <mxGeometry width="160" relative="1" as="geometry">
            <mxPoint x="395" y="800" as="sourcePoint" />
            <mxPoint x="394.65999999999997" y="630" as="targetPoint" />
          </mxGeometry>
        </mxCell>
        <mxCell id="7JB2jiOyO1GIOqcpzcJS-28" value="&lt;p style=&quot;margin:0px;margin-top:4px;text-align:center;&quot;&gt;&lt;b&gt;BlockMinting&lt;/b&gt;&lt;/p&gt;&lt;p style=&quot;margin:0px;margin-top:4px;text-align:center;&quot;&gt;&lt;b&gt;(创建积木)&lt;br&gt;&lt;/b&gt;&lt;/p&gt;&lt;hr size=&quot;1&quot;&gt;&lt;p style=&quot;margin:0px;margin-left:4px;&quot;&gt;- PROMO_CREATION_LIMIT:uint256 = 5000&lt;br&gt;&lt;/p&gt;&lt;hr size=&quot;1&quot;&gt;&amp;nbsp;+ createPromoBlock(unit8, address): void" style="verticalAlign=top;align=left;overflow=fill;fontSize=12;fontFamily=Helvetica;html=1;whiteSpace=wrap;" parent="WIyWlLk6GJQsqaUBKTNV-1" vertex="1">
          <mxGeometry x="270" y="630" width="270" height="100" as="geometry" />
        </mxCell>
        <mxCell id="7JB2jiOyO1GIOqcpzcJS-29" value="" style="endArrow=block;endSize=10;endFill=0;shadow=0;strokeWidth=1;rounded=0;edgeStyle=elbowEdgeStyle;elbow=vertical;entryX=0.5;entryY=1;entryDx=0;entryDy=0;exitX=0.5;exitY=0;exitDx=0;exitDy=0;" parent="WIyWlLk6GJQsqaUBKTNV-1" source="7JB2jiOyO1GIOqcpzcJS-28" target="7JB2jiOyO1GIOqcpzcJS-35" edge="1">
          <mxGeometry width="160" relative="1" as="geometry">
            <mxPoint x="380" y="670" as="sourcePoint" />
            <mxPoint x="405.25" y="580" as="targetPoint" />
          </mxGeometry>
        </mxCell>
        <mxCell id="7JB2jiOyO1GIOqcpzcJS-31" value="&lt;p style=&quot;margin:0px;margin-top:4px;text-align:center;&quot;&gt;&lt;b&gt;BlockCore&lt;/b&gt;&lt;/p&gt;&lt;div align=&quot;center&quot;&gt;&lt;b&gt;(主协议)&lt;/b&gt;&lt;/div&gt;&lt;p style=&quot;margin:0px;margin-top:4px;text-align:center;text-decoration:underline;&quot;&gt;&lt;/p&gt;&lt;hr&gt;&amp;nbsp;+ getBlock(uint256): void&lt;br&gt;&lt;p style=&quot;margin:0px;margin-left:8px;&quot;&gt;&lt;/p&gt;" style="verticalAlign=top;align=left;overflow=fill;fontSize=12;fontFamily=Helvetica;html=1;whiteSpace=wrap;" parent="WIyWlLk6GJQsqaUBKTNV-1" vertex="1">
          <mxGeometry x="325" y="780" width="160" height="65" as="geometry" />
        </mxCell>
        <mxCell id="7JB2jiOyO1GIOqcpzcJS-32" value="&lt;p style=&quot;margin:0px;margin-top:4px;text-align:center;&quot;&gt;&lt;b&gt;BlockOwnership&lt;/b&gt;&lt;/p&gt;&lt;div align=&quot;center&quot;&gt;&lt;b&gt;(管理积木的归属与转移)&lt;/b&gt;&lt;/div&gt;&lt;p style=&quot;margin:0px;margin-top:4px;text-align:center;text-decoration:underline;&quot;&gt;&lt;/p&gt;&lt;hr&gt;&amp;nbsp;+ balanceOf(Address): uint256&lt;p style=&quot;margin:0px;margin-left:4px;&quot;&gt;+ transfer(address, uint256): void&lt;/p&gt;&lt;p style=&quot;margin:0px;margin-left:4px;&quot;&gt;+ approve(address, uint256): void&lt;/p&gt;&lt;p style=&quot;margin:0px;margin-left:4px;&quot;&gt;+ transferFrom(address, address, uint256): void&lt;br&gt;&lt;/p&gt;&lt;p style=&quot;margin:0px;margin-left:4px;&quot;&gt;+ totalSupply(): uint&lt;/p&gt;&lt;p style=&quot;margin:0px;margin-left:4px;&quot;&gt;+ ownerOf(uint256): address&lt;/p&gt;&amp;nbsp;+ tokenOfOwner(address): uint256[]&lt;p style=&quot;margin:0px;margin-left:8px;&quot;&gt;&lt;/p&gt;" style="verticalAlign=top;align=left;overflow=fill;fontSize=12;fontFamily=Helvetica;html=1;whiteSpace=wrap;" parent="WIyWlLk6GJQsqaUBKTNV-1" vertex="1">
          <mxGeometry x="270" y="250" width="270" height="150" as="geometry" />
        </mxCell>
        <mxCell id="7JB2jiOyO1GIOqcpzcJS-34" value="" style="endArrow=block;endSize=10;endFill=0;shadow=0;strokeWidth=1;rounded=0;edgeStyle=elbowEdgeStyle;elbow=vertical;entryX=0.5;entryY=1;entryDx=0;entryDy=0;exitX=0.5;exitY=0;exitDx=0;exitDy=0;" parent="WIyWlLk6GJQsqaUBKTNV-1" source="7JB2jiOyO1GIOqcpzcJS-35" target="7JB2jiOyO1GIOqcpzcJS-32" edge="1">
          <mxGeometry width="160" relative="1" as="geometry">
            <mxPoint x="405" y="450" as="sourcePoint" />
            <mxPoint x="404.5" y="310" as="targetPoint" />
          </mxGeometry>
        </mxCell>
        <mxCell id="7JB2jiOyO1GIOqcpzcJS-35" value="&lt;p align=&quot;center&quot; style=&quot;margin: 4px 0px 0px;&quot;&gt;&lt;b&gt;BlockAuction&lt;/b&gt;&lt;/p&gt;&lt;div align=&quot;center&quot;&gt;&lt;b&gt;(对外提供拍卖能力)&lt;/b&gt;&lt;/div&gt;&lt;p style=&quot;margin:0px;margin-top:4px;text-align:center;text-decoration:underline;&quot;&gt;&lt;/p&gt;&lt;hr&gt;&lt;div&gt;&amp;nbsp;+setSaleAuctionAddress(address): void&lt;/div&gt;&lt;div&gt;&amp;nbsp;+ createSaleAuction(uint256, uint256): void&lt;/div&gt;&lt;div&gt;&amp;nbsp;+ withdrawAuctionBalance():void&lt;/div&gt;&lt;div&gt;&lt;br&gt;&lt;/div&gt;&lt;p style=&quot;margin:0px;margin-left:8px;&quot;&gt;&lt;/p&gt;" style="verticalAlign=top;align=left;overflow=fill;fontSize=12;fontFamily=Helvetica;html=1;whiteSpace=wrap;" parent="WIyWlLk6GJQsqaUBKTNV-1" vertex="1">
          <mxGeometry x="270" y="457.5" width="270" height="95" as="geometry" />
        </mxCell>
      </root>
    </mxGraphModel>
  </diagram>
</mxfile>
